<svg width="80" height="80" xmlns="http://www.w3.org/2000/svg" xmlns:xlink="http://www.w3.org/1999/xlink" overflow="hidden"><defs><clipPath id="clip0"><path d="M201 491 281 491 281 571 201 571Z" fill-rule="evenodd" clip-rule="evenodd"/></clipPath></defs><g clip-path="url(#clip0)" transform="translate(-201 -491)"><path d="M202.5 531.5C202.5 509.961 219.737 492.5 241 492.5 262.263 492.5 279.5 509.961 279.5 531.5 279.5 553.039 262.263 570.5 241 570.5 219.737 570.5 202.5 553.039 202.5 531.5Z" stroke="#FFFFFF" stroke-miterlimit="8" fill="#5495BF" fill-rule="evenodd"/><path d="M231.426 522.126 250.174 539.474 236.349 554.415 236.137 554.644 236.108 554.618 234.744 555.768C230.671 558.415 224.486 557.518 219.956 553.326 215.426 549.134 214.052 543.037 216.376 538.771L217.417 537.322 217.389 537.295 217.6 537.067Z" stroke="#FFFFFF" stroke-width="3" stroke-linecap="round" stroke-linejoin="round" stroke-miterlimit="10" fill="#FFFFFF" fill-rule="evenodd"/><path d="M250.174 539.474 231.426 522.126 245.251 507.185 245.463 506.956 245.492 506.982 246.856 505.833C250.929 503.185 257.114 504.083 261.644 508.274 266.174 512.466 267.548 518.564 265.224 522.829L264.183 524.278 264.211 524.305 264 524.534Z" stroke="#FFFFFF" stroke-width="3" stroke-linecap="round" stroke-linejoin="round" stroke-miterlimit="10" fill="none" fill-rule="evenodd"/><path d="M256.485 515.662C257.327 517.238 258.17 518.814 257.833 520.304 257.496 521.794 255.98 523.197 254.464 524.601" stroke="#FFFFFF" stroke-width="3" stroke-linecap="round" stroke-linejoin="round" stroke-miterlimit="10" fill="none" fill-rule="evenodd"/></g></svg>